<mxfile host="app.diagrams.net" modified="2023-09-01T13:53:03.445Z" agent="Mozilla/5.0 (Windows NT 10.0; Win64; x64) AppleWebKit/537.36 (KHTML, like Gecko) Chrome/115.0.0.0 Safari/537.36 OPR/101.0.0.0" etag="Cmis7fOaBq5S98E2BRgz" version="21.6.8" type="google">
  <diagram id="C5RBs43oDa-KdzZeNtuy" name="Page-1">
    <mxGraphModel grid="1" page="1" gridSize="10" guides="1" tooltips="1" connect="1" arrows="1" fold="1" pageScale="1" pageWidth="827" pageHeight="1169" background="#FFFFFF" math="0" shadow="0">
      <root>
        <mxCell id="WIyWlLk6GJQsqaUBKTNV-0" />
        <mxCell id="WIyWlLk6GJQsqaUBKTNV-1" parent="WIyWlLk6GJQsqaUBKTNV-0" />
        <mxCell id="_M5onWmUr9HT5XYiwB-a-6" style="edgeStyle=orthogonalEdgeStyle;rounded=0;orthogonalLoop=1;jettySize=auto;html=1;entryX=0.01;entryY=0.6;entryDx=0;entryDy=0;entryPerimeter=0;" edge="1" parent="WIyWlLk6GJQsqaUBKTNV-1" source="_M5onWmUr9HT5XYiwB-a-1" target="_M5onWmUr9HT5XYiwB-a-3">
          <mxGeometry relative="1" as="geometry" />
        </mxCell>
        <mxCell id="_M5onWmUr9HT5XYiwB-a-13" style="edgeStyle=orthogonalEdgeStyle;rounded=0;orthogonalLoop=1;jettySize=auto;html=1;entryX=0;entryY=0.5;entryDx=0;entryDy=0;" edge="1" parent="WIyWlLk6GJQsqaUBKTNV-1" source="_M5onWmUr9HT5XYiwB-a-1" target="_M5onWmUr9HT5XYiwB-a-10">
          <mxGeometry relative="1" as="geometry" />
        </mxCell>
        <mxCell id="_M5onWmUr9HT5XYiwB-a-14" style="edgeStyle=orthogonalEdgeStyle;rounded=0;orthogonalLoop=1;jettySize=auto;html=1;entryX=0;entryY=0.5;entryDx=0;entryDy=0;" edge="1" parent="WIyWlLk6GJQsqaUBKTNV-1" source="_M5onWmUr9HT5XYiwB-a-1" target="_M5onWmUr9HT5XYiwB-a-7">
          <mxGeometry relative="1" as="geometry" />
        </mxCell>
        <mxCell id="_M5onWmUr9HT5XYiwB-a-15" style="edgeStyle=orthogonalEdgeStyle;rounded=0;orthogonalLoop=1;jettySize=auto;html=1;entryX=0.5;entryY=1;entryDx=0;entryDy=0;" edge="1" parent="WIyWlLk6GJQsqaUBKTNV-1" source="_M5onWmUr9HT5XYiwB-a-1" target="_M5onWmUr9HT5XYiwB-a-8">
          <mxGeometry relative="1" as="geometry" />
        </mxCell>
        <mxCell id="_M5onWmUr9HT5XYiwB-a-16" style="edgeStyle=orthogonalEdgeStyle;rounded=0;orthogonalLoop=1;jettySize=auto;html=1;entryX=0.5;entryY=1;entryDx=0;entryDy=0;" edge="1" parent="WIyWlLk6GJQsqaUBKTNV-1" source="_M5onWmUr9HT5XYiwB-a-1" target="_M5onWmUr9HT5XYiwB-a-9">
          <mxGeometry relative="1" as="geometry" />
        </mxCell>
        <mxCell id="_M5onWmUr9HT5XYiwB-a-17" style="edgeStyle=orthogonalEdgeStyle;rounded=0;orthogonalLoop=1;jettySize=auto;html=1;entryX=0;entryY=0.5;entryDx=0;entryDy=0;" edge="1" parent="WIyWlLk6GJQsqaUBKTNV-1" source="_M5onWmUr9HT5XYiwB-a-1" target="_M5onWmUr9HT5XYiwB-a-11">
          <mxGeometry relative="1" as="geometry" />
        </mxCell>
        <mxCell id="_M5onWmUr9HT5XYiwB-a-60" style="edgeStyle=orthogonalEdgeStyle;rounded=0;orthogonalLoop=1;jettySize=auto;html=1;entryX=1;entryY=0.5;entryDx=0;entryDy=0;" edge="1" parent="WIyWlLk6GJQsqaUBKTNV-1" source="_M5onWmUr9HT5XYiwB-a-1" target="_M5onWmUr9HT5XYiwB-a-58">
          <mxGeometry relative="1" as="geometry" />
        </mxCell>
        <mxCell id="_M5onWmUr9HT5XYiwB-a-1" value="Pessoa" style="rounded=0;whiteSpace=wrap;html=1;" vertex="1" parent="WIyWlLk6GJQsqaUBKTNV-1">
          <mxGeometry x="354" y="90" width="120" height="60" as="geometry" />
        </mxCell>
        <mxCell id="_M5onWmUr9HT5XYiwB-a-3" value="CPF" style="ellipse;whiteSpace=wrap;html=1;aspect=fixed;fillColor=#6d8764;fontColor=#ffffff;strokeColor=#3A5431;" vertex="1" parent="WIyWlLk6GJQsqaUBKTNV-1">
          <mxGeometry x="520" y="30" width="30" height="30" as="geometry" />
        </mxCell>
        <mxCell id="_M5onWmUr9HT5XYiwB-a-7" value="RG" style="ellipse;whiteSpace=wrap;html=1;aspect=fixed;fillColor=#e51400;fontColor=#ffffff;strokeColor=#B20000;" vertex="1" parent="WIyWlLk6GJQsqaUBKTNV-1">
          <mxGeometry x="480" y="-10" width="30" height="30" as="geometry" />
        </mxCell>
        <mxCell id="_M5onWmUr9HT5XYiwB-a-8" value="Nome" style="ellipse;whiteSpace=wrap;html=1;aspect=fixed;fillColor=#e51400;fontColor=#ffffff;strokeColor=#B20000;" vertex="1" parent="WIyWlLk6GJQsqaUBKTNV-1">
          <mxGeometry x="354" y="-10" width="40" height="40" as="geometry" />
        </mxCell>
        <mxCell id="_M5onWmUr9HT5XYiwB-a-9" value="Sobrenome&amp;nbsp;" style="ellipse;whiteSpace=wrap;html=1;aspect=fixed;" vertex="1" parent="WIyWlLk6GJQsqaUBKTNV-1">
          <mxGeometry x="394" y="-70" width="70" height="70" as="geometry" />
        </mxCell>
        <mxCell id="_M5onWmUr9HT5XYiwB-a-10" value="Endereço&amp;nbsp;" style="ellipse;whiteSpace=wrap;html=1;aspect=fixed;fillColor=#e51400;fontColor=#ffffff;strokeColor=#B20000;" vertex="1" parent="WIyWlLk6GJQsqaUBKTNV-1">
          <mxGeometry x="560" y="40" width="60" height="60" as="geometry" />
        </mxCell>
        <mxCell id="_M5onWmUr9HT5XYiwB-a-11" value="Telefone&amp;nbsp;" style="ellipse;whiteSpace=wrap;html=1;aspect=fixed;fillColor=#e51400;fontColor=#ffffff;strokeColor=#B20000;" vertex="1" parent="WIyWlLk6GJQsqaUBKTNV-1">
          <mxGeometry x="540" y="100" width="50" height="50" as="geometry" />
        </mxCell>
        <mxCell id="_M5onWmUr9HT5XYiwB-a-22" style="edgeStyle=orthogonalEdgeStyle;rounded=0;orthogonalLoop=1;jettySize=auto;html=1;entryX=1;entryY=0.5;entryDx=0;entryDy=0;" edge="1" parent="WIyWlLk6GJQsqaUBKTNV-1" source="_M5onWmUr9HT5XYiwB-a-18" target="_M5onWmUr9HT5XYiwB-a-21">
          <mxGeometry relative="1" as="geometry" />
        </mxCell>
        <mxCell id="_M5onWmUr9HT5XYiwB-a-24" style="edgeStyle=orthogonalEdgeStyle;rounded=0;orthogonalLoop=1;jettySize=auto;html=1;entryX=1;entryY=0.5;entryDx=0;entryDy=0;" edge="1" parent="WIyWlLk6GJQsqaUBKTNV-1" source="_M5onWmUr9HT5XYiwB-a-18" target="_M5onWmUr9HT5XYiwB-a-23">
          <mxGeometry relative="1" as="geometry" />
        </mxCell>
        <mxCell id="_M5onWmUr9HT5XYiwB-a-64" style="edgeStyle=orthogonalEdgeStyle;rounded=0;orthogonalLoop=1;jettySize=auto;html=1;entryX=1;entryY=0.5;entryDx=0;entryDy=0;" edge="1" parent="WIyWlLk6GJQsqaUBKTNV-1" source="_M5onWmUr9HT5XYiwB-a-18" target="_M5onWmUr9HT5XYiwB-a-63">
          <mxGeometry relative="1" as="geometry" />
        </mxCell>
        <mxCell id="_M5onWmUr9HT5XYiwB-a-18" value="Funcionário" style="rounded=0;whiteSpace=wrap;html=1;" vertex="1" parent="WIyWlLk6GJQsqaUBKTNV-1">
          <mxGeometry x="160" y="190" width="120" height="60" as="geometry" />
        </mxCell>
        <mxCell id="_M5onWmUr9HT5XYiwB-a-30" style="edgeStyle=orthogonalEdgeStyle;rounded=0;orthogonalLoop=1;jettySize=auto;html=1;entryX=1;entryY=0.5;entryDx=0;entryDy=0;" edge="1" parent="WIyWlLk6GJQsqaUBKTNV-1" source="_M5onWmUr9HT5XYiwB-a-19" target="_M5onWmUr9HT5XYiwB-a-27">
          <mxGeometry relative="1" as="geometry" />
        </mxCell>
        <mxCell id="_M5onWmUr9HT5XYiwB-a-38" style="edgeStyle=orthogonalEdgeStyle;rounded=0;orthogonalLoop=1;jettySize=auto;html=1;" edge="1" parent="WIyWlLk6GJQsqaUBKTNV-1" source="_M5onWmUr9HT5XYiwB-a-19" target="_M5onWmUr9HT5XYiwB-a-37">
          <mxGeometry relative="1" as="geometry" />
        </mxCell>
        <mxCell id="_M5onWmUr9HT5XYiwB-a-41" style="edgeStyle=orthogonalEdgeStyle;rounded=0;orthogonalLoop=1;jettySize=auto;html=1;entryX=0.5;entryY=0;entryDx=0;entryDy=0;" edge="1" parent="WIyWlLk6GJQsqaUBKTNV-1" source="_M5onWmUr9HT5XYiwB-a-19" target="_M5onWmUr9HT5XYiwB-a-39">
          <mxGeometry relative="1" as="geometry" />
        </mxCell>
        <mxCell id="_M5onWmUr9HT5XYiwB-a-44" style="edgeStyle=orthogonalEdgeStyle;rounded=0;orthogonalLoop=1;jettySize=auto;html=1;entryX=0.5;entryY=0;entryDx=0;entryDy=0;" edge="1" parent="WIyWlLk6GJQsqaUBKTNV-1" source="_M5onWmUr9HT5XYiwB-a-19" target="_M5onWmUr9HT5XYiwB-a-40">
          <mxGeometry relative="1" as="geometry" />
        </mxCell>
        <mxCell id="_M5onWmUr9HT5XYiwB-a-55" style="edgeStyle=orthogonalEdgeStyle;rounded=0;orthogonalLoop=1;jettySize=auto;html=1;" edge="1" parent="WIyWlLk6GJQsqaUBKTNV-1" source="_M5onWmUr9HT5XYiwB-a-19" target="_M5onWmUr9HT5XYiwB-a-28">
          <mxGeometry relative="1" as="geometry" />
        </mxCell>
        <mxCell id="_M5onWmUr9HT5XYiwB-a-19" value="Cliente&amp;nbsp;" style="rounded=0;whiteSpace=wrap;html=1;" vertex="1" parent="WIyWlLk6GJQsqaUBKTNV-1">
          <mxGeometry x="330" y="370" width="120" height="60" as="geometry" />
        </mxCell>
        <mxCell id="_M5onWmUr9HT5XYiwB-a-26" style="edgeStyle=orthogonalEdgeStyle;rounded=0;orthogonalLoop=1;jettySize=auto;html=1;entryX=0;entryY=0.5;entryDx=0;entryDy=0;" edge="1" parent="WIyWlLk6GJQsqaUBKTNV-1" source="_M5onWmUr9HT5XYiwB-a-20" target="_M5onWmUr9HT5XYiwB-a-25">
          <mxGeometry relative="1" as="geometry" />
        </mxCell>
        <mxCell id="_M5onWmUr9HT5XYiwB-a-66" style="edgeStyle=orthogonalEdgeStyle;rounded=0;orthogonalLoop=1;jettySize=auto;html=1;entryX=-0.012;entryY=0.613;entryDx=0;entryDy=0;entryPerimeter=0;" edge="1" parent="WIyWlLk6GJQsqaUBKTNV-1" source="_M5onWmUr9HT5XYiwB-a-20" target="_M5onWmUr9HT5XYiwB-a-65">
          <mxGeometry relative="1" as="geometry" />
        </mxCell>
        <mxCell id="_M5onWmUr9HT5XYiwB-a-75" style="edgeStyle=orthogonalEdgeStyle;rounded=0;orthogonalLoop=1;jettySize=auto;html=1;entryX=0;entryY=0.5;entryDx=0;entryDy=0;" edge="1" parent="WIyWlLk6GJQsqaUBKTNV-1" source="_M5onWmUr9HT5XYiwB-a-20" target="_M5onWmUr9HT5XYiwB-a-74">
          <mxGeometry relative="1" as="geometry" />
        </mxCell>
        <mxCell id="_M5onWmUr9HT5XYiwB-a-20" value="Dependente&amp;nbsp;" style="rounded=0;whiteSpace=wrap;html=1;" vertex="1" parent="WIyWlLk6GJQsqaUBKTNV-1">
          <mxGeometry x="510" y="190" width="120" height="60" as="geometry" />
        </mxCell>
        <mxCell id="_M5onWmUr9HT5XYiwB-a-21" value="Setor&amp;nbsp;" style="ellipse;whiteSpace=wrap;html=1;aspect=fixed;fillColor=#e51400;fontColor=#ffffff;strokeColor=#B20000;" vertex="1" parent="WIyWlLk6GJQsqaUBKTNV-1">
          <mxGeometry x="50" y="130" width="40" height="40" as="geometry" />
        </mxCell>
        <mxCell id="_M5onWmUr9HT5XYiwB-a-23" value="Desconto: 10%" style="ellipse;whiteSpace=wrap;html=1;aspect=fixed;" vertex="1" parent="WIyWlLk6GJQsqaUBKTNV-1">
          <mxGeometry x="110" y="80" width="60" height="60" as="geometry" />
        </mxCell>
        <mxCell id="_M5onWmUr9HT5XYiwB-a-25" value="Desconto: 5%" style="ellipse;whiteSpace=wrap;html=1;aspect=fixed;" vertex="1" parent="WIyWlLk6GJQsqaUBKTNV-1">
          <mxGeometry x="690" y="110" width="60" height="60" as="geometry" />
        </mxCell>
        <mxCell id="_M5onWmUr9HT5XYiwB-a-27" value="ID" style="ellipse;whiteSpace=wrap;html=1;aspect=fixed;fillColor=#6d8764;fontColor=#ffffff;strokeColor=#3A5431;" vertex="1" parent="WIyWlLk6GJQsqaUBKTNV-1">
          <mxGeometry x="230" y="435" width="30" height="30" as="geometry" />
        </mxCell>
        <mxCell id="_M5onWmUr9HT5XYiwB-a-36" style="edgeStyle=orthogonalEdgeStyle;rounded=0;orthogonalLoop=1;jettySize=auto;html=1;" edge="1" parent="WIyWlLk6GJQsqaUBKTNV-1" source="_M5onWmUr9HT5XYiwB-a-28" target="_M5onWmUr9HT5XYiwB-a-35">
          <mxGeometry relative="1" as="geometry" />
        </mxCell>
        <mxCell id="_M5onWmUr9HT5XYiwB-a-46" style="edgeStyle=orthogonalEdgeStyle;rounded=0;orthogonalLoop=1;jettySize=auto;html=1;entryX=0.5;entryY=1;entryDx=0;entryDy=0;" edge="1" parent="WIyWlLk6GJQsqaUBKTNV-1" source="_M5onWmUr9HT5XYiwB-a-28" target="_M5onWmUr9HT5XYiwB-a-45">
          <mxGeometry relative="1" as="geometry" />
        </mxCell>
        <mxCell id="_M5onWmUr9HT5XYiwB-a-57" style="edgeStyle=orthogonalEdgeStyle;rounded=0;orthogonalLoop=1;jettySize=auto;html=1;" edge="1" parent="WIyWlLk6GJQsqaUBKTNV-1" source="_M5onWmUr9HT5XYiwB-a-28" target="_M5onWmUr9HT5XYiwB-a-29">
          <mxGeometry relative="1" as="geometry" />
        </mxCell>
        <mxCell id="_M5onWmUr9HT5XYiwB-a-28" value="Pedido&amp;nbsp;" style="rounded=0;whiteSpace=wrap;html=1;" vertex="1" parent="WIyWlLk6GJQsqaUBKTNV-1">
          <mxGeometry x="580" y="420" width="120" height="60" as="geometry" />
        </mxCell>
        <mxCell id="_M5onWmUr9HT5XYiwB-a-33" style="edgeStyle=orthogonalEdgeStyle;rounded=0;orthogonalLoop=1;jettySize=auto;html=1;entryX=0;entryY=0.5;entryDx=0;entryDy=0;" edge="1" parent="WIyWlLk6GJQsqaUBKTNV-1" source="_M5onWmUr9HT5XYiwB-a-29" target="_M5onWmUr9HT5XYiwB-a-31">
          <mxGeometry relative="1" as="geometry" />
        </mxCell>
        <mxCell id="_M5onWmUr9HT5XYiwB-a-34" style="edgeStyle=orthogonalEdgeStyle;rounded=0;orthogonalLoop=1;jettySize=auto;html=1;entryX=0;entryY=0.5;entryDx=0;entryDy=0;" edge="1" parent="WIyWlLk6GJQsqaUBKTNV-1" source="_M5onWmUr9HT5XYiwB-a-29" target="_M5onWmUr9HT5XYiwB-a-32">
          <mxGeometry relative="1" as="geometry" />
        </mxCell>
        <mxCell id="_M5onWmUr9HT5XYiwB-a-49" style="edgeStyle=orthogonalEdgeStyle;rounded=0;orthogonalLoop=1;jettySize=auto;html=1;" edge="1" parent="WIyWlLk6GJQsqaUBKTNV-1" source="_M5onWmUr9HT5XYiwB-a-29" target="_M5onWmUr9HT5XYiwB-a-48">
          <mxGeometry relative="1" as="geometry" />
        </mxCell>
        <mxCell id="_M5onWmUr9HT5XYiwB-a-29" value="Produto&amp;nbsp;" style="rounded=0;whiteSpace=wrap;html=1;" vertex="1" parent="WIyWlLk6GJQsqaUBKTNV-1">
          <mxGeometry x="810" y="420" width="120" height="60" as="geometry" />
        </mxCell>
        <mxCell id="_M5onWmUr9HT5XYiwB-a-31" value="Novo" style="ellipse;whiteSpace=wrap;html=1;aspect=fixed;" vertex="1" parent="WIyWlLk6GJQsqaUBKTNV-1">
          <mxGeometry x="1170" y="460" width="40" height="40" as="geometry" />
        </mxCell>
        <mxCell id="_M5onWmUr9HT5XYiwB-a-32" value="Seminovo&amp;nbsp;" style="ellipse;whiteSpace=wrap;html=1;aspect=fixed;" vertex="1" parent="WIyWlLk6GJQsqaUBKTNV-1">
          <mxGeometry x="1000" y="350" width="60" height="60" as="geometry" />
        </mxCell>
        <mxCell id="_M5onWmUr9HT5XYiwB-a-35" value="ID_Produto" style="ellipse;whiteSpace=wrap;html=1;aspect=fixed;direction=south;fillColor=#6d8764;fontColor=#ffffff;strokeColor=#3A5431;" vertex="1" parent="WIyWlLk6GJQsqaUBKTNV-1">
          <mxGeometry x="605" y="280" width="70" height="70" as="geometry" />
        </mxCell>
        <mxCell id="_M5onWmUr9HT5XYiwB-a-37" value="E-mail" style="ellipse;whiteSpace=wrap;html=1;aspect=fixed;fillColor=#e51400;fontColor=#ffffff;strokeColor=#B20000;" vertex="1" parent="WIyWlLk6GJQsqaUBKTNV-1">
          <mxGeometry x="280" y="530" width="50" height="50" as="geometry" />
        </mxCell>
        <mxCell id="_M5onWmUr9HT5XYiwB-a-39" value="E-mail2" style="ellipse;whiteSpace=wrap;html=1;aspect=fixed;" vertex="1" parent="WIyWlLk6GJQsqaUBKTNV-1">
          <mxGeometry x="349" y="530" width="50" height="50" as="geometry" />
        </mxCell>
        <mxCell id="_M5onWmUr9HT5XYiwB-a-40" value="E-mail3" style="ellipse;whiteSpace=wrap;html=1;aspect=fixed;" vertex="1" parent="WIyWlLk6GJQsqaUBKTNV-1">
          <mxGeometry x="430" y="530" width="50" height="50" as="geometry" />
        </mxCell>
        <mxCell id="_M5onWmUr9HT5XYiwB-a-45" value="ID_cliente" style="ellipse;whiteSpace=wrap;html=1;aspect=fixed;" vertex="1" parent="WIyWlLk6GJQsqaUBKTNV-1">
          <mxGeometry x="690" y="285" width="60" height="60" as="geometry" />
        </mxCell>
        <mxCell id="_M5onWmUr9HT5XYiwB-a-48" value="ID" style="ellipse;whiteSpace=wrap;html=1;aspect=fixed;fillColor=#6d8764;fontColor=#ffffff;strokeColor=#3A5431;" vertex="1" parent="WIyWlLk6GJQsqaUBKTNV-1">
          <mxGeometry x="1040" y="540" width="30" height="30" as="geometry" />
        </mxCell>
        <mxCell id="_M5onWmUr9HT5XYiwB-a-61" style="edgeStyle=orthogonalEdgeStyle;rounded=0;orthogonalLoop=1;jettySize=auto;html=1;entryX=0;entryY=0.5;entryDx=0;entryDy=0;" edge="1" parent="WIyWlLk6GJQsqaUBKTNV-1" source="_M5onWmUr9HT5XYiwB-a-58" target="_M5onWmUr9HT5XYiwB-a-20">
          <mxGeometry relative="1" as="geometry" />
        </mxCell>
        <mxCell id="_M5onWmUr9HT5XYiwB-a-62" style="edgeStyle=orthogonalEdgeStyle;rounded=0;orthogonalLoop=1;jettySize=auto;html=1;entryX=1;entryY=0.5;entryDx=0;entryDy=0;" edge="1" parent="WIyWlLk6GJQsqaUBKTNV-1" source="_M5onWmUr9HT5XYiwB-a-58" target="_M5onWmUr9HT5XYiwB-a-18">
          <mxGeometry relative="1" as="geometry" />
        </mxCell>
        <mxCell id="_M5onWmUr9HT5XYiwB-a-58" value="" style="triangle;whiteSpace=wrap;html=1;rotation=-90;" vertex="1" parent="WIyWlLk6GJQsqaUBKTNV-1">
          <mxGeometry x="364" y="180" width="60" height="80" as="geometry" />
        </mxCell>
        <mxCell id="_M5onWmUr9HT5XYiwB-a-63" value="ID" style="ellipse;whiteSpace=wrap;html=1;aspect=fixed;fillColor=#6d8764;fontColor=#ffffff;strokeColor=#3A5431;" vertex="1" parent="WIyWlLk6GJQsqaUBKTNV-1">
          <mxGeometry x="20" y="195" width="30" height="30" as="geometry" />
        </mxCell>
        <mxCell id="_M5onWmUr9HT5XYiwB-a-65" value="funcionário_id" style="ellipse;whiteSpace=wrap;html=1;aspect=fixed;fillColor=#f5f5f5;strokeColor=#666666;gradientColor=#b3b3b3;" vertex="1" parent="WIyWlLk6GJQsqaUBKTNV-1">
          <mxGeometry x="690" y="190" width="80" height="80" as="geometry" />
        </mxCell>
        <mxCell id="_M5onWmUr9HT5XYiwB-a-70" value="" style="curved=1;endArrow=classic;html=1;rounded=0;entryX=0;entryY=0;entryDx=0;entryDy=0;" edge="1" parent="WIyWlLk6GJQsqaUBKTNV-1" source="_M5onWmUr9HT5XYiwB-a-18" target="_M5onWmUr9HT5XYiwB-a-19">
          <mxGeometry width="50" height="50" relative="1" as="geometry">
            <mxPoint x="170" y="340" as="sourcePoint" />
            <mxPoint x="290" y="280" as="targetPoint" />
            <Array as="points">
              <mxPoint x="190" y="310" />
              <mxPoint x="210" y="330" />
              <mxPoint x="240" y="310" />
              <mxPoint x="260" y="320" />
            </Array>
          </mxGeometry>
        </mxCell>
        <mxCell id="_M5onWmUr9HT5XYiwB-a-71" value="" style="curved=1;endArrow=classic;html=1;rounded=0;exitX=0;exitY=1;exitDx=0;exitDy=0;entryX=0.917;entryY=-0.017;entryDx=0;entryDy=0;entryPerimeter=0;" edge="1" parent="WIyWlLk6GJQsqaUBKTNV-1" source="_M5onWmUr9HT5XYiwB-a-20" target="_M5onWmUr9HT5XYiwB-a-19">
          <mxGeometry width="50" height="50" relative="1" as="geometry">
            <mxPoint x="520" y="320" as="sourcePoint" />
            <mxPoint x="470" y="310" as="targetPoint" />
            <Array as="points">
              <mxPoint x="490" y="270" />
              <mxPoint x="480" y="290" />
              <mxPoint x="520" y="270" />
            </Array>
          </mxGeometry>
        </mxCell>
        <mxCell id="_M5onWmUr9HT5XYiwB-a-74" value="ID" style="ellipse;whiteSpace=wrap;html=1;aspect=fixed;fillColor=#6d8764;fontColor=#ffffff;strokeColor=#3A5431;" vertex="1" parent="WIyWlLk6GJQsqaUBKTNV-1">
          <mxGeometry x="625" y="150" width="30" height="30" as="geometry" />
        </mxCell>
        <mxCell id="_M5onWmUr9HT5XYiwB-a-76" value="Chave Primaria&amp;nbsp;" style="rounded=1;whiteSpace=wrap;html=1;fillColor=#6d8764;fontColor=#ffffff;strokeColor=#3A5431;" vertex="1" parent="WIyWlLk6GJQsqaUBKTNV-1">
          <mxGeometry x="760" y="-30" width="50" height="30" as="geometry" />
        </mxCell>
        <mxCell id="_M5onWmUr9HT5XYiwB-a-77" value="Chave Estrangeira&amp;nbsp;" style="rounded=1;whiteSpace=wrap;html=1;fillColor=#f5f5f5;strokeColor=#666666;gradientColor=#b3b3b3;" vertex="1" parent="WIyWlLk6GJQsqaUBKTNV-1">
          <mxGeometry x="760" y="5" width="70" height="35" as="geometry" />
        </mxCell>
        <mxCell id="_M5onWmUr9HT5XYiwB-a-78" value="Não Nulo" style="rounded=1;whiteSpace=wrap;html=1;fillColor=#e51400;fontColor=#ffffff;strokeColor=#B20000;" vertex="1" parent="WIyWlLk6GJQsqaUBKTNV-1">
          <mxGeometry x="760" y="50" width="60" height="30" as="geometry" />
        </mxCell>
      </root>
    </mxGraphModel>
  </diagram>
</mxfile>
